<svg xmlns="http://www.w3.org/2000/svg" width="341.923" height="240.205" viewBox="0 0 341.923 240.205">
  <g id="Group_133" data-name="Group 133" transform="translate(-3.789 -2.339)">
    <g id="Group_128" data-name="Group 128" transform="translate(102.282 2.339)">
      <g id="Group_126" data-name="Group 126">
        <g id="Group_125" data-name="Group 125">
          <path id="Path_328" data-name="Path 328" d="M142.925,150.841A71.877,71.877,0,0,1,114.015,145a75.056,75.056,0,0,1-39.5-39.5,71.819,71.819,0,0,1-5.841-28.908,71.84,71.84,0,0,1,5.841-28.908,75.07,75.07,0,0,1,39.5-39.5A74.194,74.194,0,0,1,166.487,6.2,76.418,76.418,0,0,1,187.08,16.89a73.513,73.513,0,0,1,26.531,37.127H201.335a64.722,64.722,0,0,0-9.108-16.435A61.376,61.376,0,0,0,178.96,24.713,63.306,63.306,0,0,0,162.229,16.3a63.144,63.144,0,0,0-43.956,1.881,61.859,61.859,0,0,0-19.8,13.565,63.87,63.87,0,0,0-13.267,20.2,63.147,63.147,0,0,0-4.85,24.65,62.43,62.43,0,0,0,4.85,24.553,64.155,64.155,0,0,0,13.267,20.1,63.136,63.136,0,0,0,19.8,13.662,62.795,62.795,0,0,0,43.759,2.08,63.465,63.465,0,0,0,16.534-8.217,59.486,59.486,0,0,0,13.167-12.573,68.826,68.826,0,0,0,9.207-16.037h12.475a73.466,73.466,0,0,1-10.691,20.394,75.9,75.9,0,0,1-16.139,16.039A74.91,74.91,0,0,1,166.29,147.08,72.3,72.3,0,0,1,142.925,150.841Z" transform="translate(-68.673 -2.339)" fill="#ddc624"/>
        </g>
      </g>
      <g id="Group_127" data-name="Group 127" transform="translate(29.709 42.126)">
        <path id="Path_329" data-name="Path 329" d="M109.863,51.433,122.089,30.09h-8.184L101.583,51.433Z" transform="translate(-81.336 -30.09)" fill="#ddc624"/>
        <path id="Path_330" data-name="Path 330" d="M141.195,30.09,112.828,79.223H100.852L112.84,58.3h-8.311L88.244,86.5h28.786l24.164-41.854,19.962,34.575H149.18L138.948,61.5l-4.2,7.279L144.977,86.5h28.787Z" transform="translate(-88.244 -30.09)" fill="#ddc624"/>
      </g>
    </g>
    <g id="Group_131" data-name="Group 131" transform="translate(3.789 181.904)">
      <g id="Group_129" data-name="Group 129" transform="translate(228.47)">
        <path id="Path_331" data-name="Path 331" d="M154.3,137.4v-.091a16.322,16.322,0,0,1,16.634-16.681,16.811,16.811,0,0,1,12.627,5.021l-3.64,4.194c-2.581-2.4-5.345-4.009-9.03-4.009-6.13,0-10.646,5.069-10.646,11.382v.093c0,6.313,4.469,11.427,10.646,11.427,3.962,0,6.5-1.567,9.261-4.147l3.64,3.687c-3.364,3.5-7.049,5.714-13.086,5.714A16.223,16.223,0,0,1,154.3,137.4Z" transform="translate(-154.298 -120.631)" fill="#f9f9f9"/>
        <path id="Path_332" data-name="Path 332" d="M179.07,120.994h5.668v32.259H179.07Z" transform="translate(-141.467 -120.443)" fill="#f9f9f9"/>
        <path id="Path_333" data-name="Path 333" d="M198.407,126.248h-10.23v-5.254H214.35v5.254H204.12v27h-5.714Z" transform="translate(-136.749 -120.443)" fill="#f9f9f9"/>
        <path id="Path_334" data-name="Path 334" d="M221.205,140.533,208.4,120.994h6.728l8.985,14.24,9.125-14.24h6.5l-12.81,19.4v12.857h-5.714Z" transform="translate(-126.277 -120.443)" fill="#f9f9f9"/>
      </g>
      <g id="Group_130" data-name="Group 130">
        <path id="Path_335" data-name="Path 335" d="M17.987,120.631h6.72l14.2,33.362H31.284l-3.028-7.429H14.248l-3.028,7.429H3.789Zm7.666,19.5-4.4-10.743-4.4,10.743Z" transform="translate(-3.789 -120.631)" fill="#f9f9f9"/>
        <path id="Path_336" data-name="Path 336" d="M25.8,120.818h7.808l6.861,22.433L47.9,120.724h6.246l7.429,22.527,6.863-22.433h7.619l-11.31,33.364H58.4l-7.478-21.674-7.478,21.674H37.108Z" transform="translate(7.611 -120.583)" fill="#f9f9f9"/>
        <path id="Path_337" data-name="Path 337" d="M71.98,120.631H78.7l14.2,33.362H85.277l-3.028-7.429H68.241l-3.028,7.429H57.782Zm7.666,19.5-4.4-10.743-4.4,10.743Z" transform="translate(24.178 -120.631)" fill="#f9f9f9"/>
        <path id="Path_338" data-name="Path 338" d="M84.28,120.786h7.288v14.482l13.44-14.482h8.8l-13.487,14.055,14.1,19.072H105.67L95.4,139.811l-3.833,3.976v10.126H84.28Z" transform="translate(37.904 -120.551)" fill="#f9f9f9"/>
        <path id="Path_339" data-name="Path 339" d="M107.037,120.786h24.986v6.483H114.278v6.72h15.615v6.483H114.278v6.957H132.26v6.483H107.037Z" transform="translate(49.691 -120.551)" fill="#f9f9f9"/>
        <path id="Path_340" data-name="Path 340" d="M127.923,120.786h6.72l15.523,20.4v-20.4h7.192v33.127h-6.2l-16.042-21.059v21.059h-7.194Z" transform="translate(60.51 -120.551)" fill="#f9f9f9"/>
      </g>
    </g>
    <g id="Group_132" data-name="Group 132" transform="translate(101.328 228.761)">
      <path id="Path_341" data-name="Path 341" d="M68.045,158.429v-.038a6.714,6.714,0,0,1,6.738-6.892,6.938,6.938,0,0,1,5.2,2.113l-1.029,1.105a5.789,5.789,0,0,0-4.188-1.828,5.225,5.225,0,0,0-5.16,5.463v.038a5.259,5.259,0,0,0,5.16,5.5,5.782,5.782,0,0,0,4.3-1.923l.991.97a6.937,6.937,0,0,1-5.331,2.342A6.647,6.647,0,0,1,68.045,158.429Z" transform="translate(-68.045 -151.499)" fill="#ddc624"/>
      <path id="Path_342" data-name="Path 342" d="M86.223,151.65h1.506v5.92h7.69v-5.92h1.5v13.326h-1.5v-6h-7.69v6H86.223Z" transform="translate(-58.629 -151.421)" fill="#ddc624"/>
      <path id="Path_343" data-name="Path 343" d="M104.151,159.4V151.65h1.5V159.3c0,2.875,1.544,4.493,4.076,4.493,2.455,0,4.017-1.485,4.017-4.4V151.65h1.5v7.632c0,3.885-2.228,5.9-5.56,5.9C106.4,165.186,104.151,163.167,104.151,159.4Z" transform="translate(-49.343 -151.421)" fill="#ddc624"/>
      <path id="Path_344" data-name="Path 344" d="M122.342,151.65h5.732a5.258,5.258,0,0,1,3.787,1.331,3.681,3.681,0,0,1,1.028,2.628v.038c0,2.209-1.523,3.5-3.617,3.885l4.094,5.445h-1.847l-3.865-5.179h-3.807v5.179h-1.5Zm5.6,6.8c2,0,3.428-1.029,3.428-2.741v-.039c0-1.636-1.257-2.626-3.408-2.626h-4.112v5.407Z" transform="translate(-39.92 -151.421)" fill="#ddc624"/>
      <path id="Path_345" data-name="Path 345" d="M139.555,158.429v-.038a6.714,6.714,0,0,1,6.738-6.892,6.938,6.938,0,0,1,5.2,2.113l-1.029,1.105a5.789,5.789,0,0,0-4.188-1.828,5.225,5.225,0,0,0-5.16,5.463v.038a5.259,5.259,0,0,0,5.16,5.5,5.782,5.782,0,0,0,4.3-1.923l.991.97a6.937,6.937,0,0,1-5.331,2.342A6.647,6.647,0,0,1,139.555,158.429Z" transform="translate(-31.004 -151.499)" fill="#ddc624"/>
      <path id="Path_346" data-name="Path 346" d="M157.733,151.65h1.506v5.92h7.69v-5.92h1.5v13.326h-1.5v-6h-7.69v6h-1.506Z" transform="translate(-21.588 -151.421)" fill="#ddc624"/>
    </g>
  </g>
</svg>
