<svg xmlns="http://www.w3.org/2000/svg" width="144.938" height="148.502" viewBox="0 0 144.938 148.502"><g transform="translate(0 0)"><path d="M142.925,150.841A71.877,71.877,0,0,1,114.015,145a75.056,75.056,0,0,1-39.5-39.5,71.819,71.819,0,0,1-5.841-28.908,71.84,71.84,0,0,1,5.841-28.908,75.07,75.07,0,0,1,39.5-39.5A74.194,74.194,0,0,1,166.487,6.2,76.418,76.418,0,0,1,187.08,16.89a73.513,73.513,0,0,1,26.531,37.127H201.335a64.722,64.722,0,0,0-9.108-16.435A61.376,61.376,0,0,0,178.96,24.713,63.306,63.306,0,0,0,162.229,16.3a63.144,63.144,0,0,0-43.956,1.881,61.859,61.859,0,0,0-19.8,13.565,63.87,63.87,0,0,0-13.267,20.2,63.147,63.147,0,0,0-4.85,24.65,62.43,62.43,0,0,0,4.85,24.553,64.155,64.155,0,0,0,13.267,20.1,63.136,63.136,0,0,0,19.8,13.662,62.795,62.795,0,0,0,43.759,2.08,63.465,63.465,0,0,0,16.534-8.217,59.486,59.486,0,0,0,13.167-12.573,68.826,68.826,0,0,0,9.207-16.037h12.475a73.466,73.466,0,0,1-10.691,20.394,75.9,75.9,0,0,1-16.139,16.039A74.91,74.91,0,0,1,166.29,147.08,72.3,72.3,0,0,1,142.925,150.841Z" transform="translate(-68.673 -2.339)" fill="#ddc624"/><g transform="translate(29.709 42.126)"><path d="M109.863,51.433,122.089,30.09h-8.184L101.583,51.433Z" transform="translate(-81.336 -30.09)" fill="#ddc624"/><path d="M141.195,30.09,112.828,79.223H100.852L112.84,58.3h-8.311L88.244,86.5h28.786l24.164-41.854,19.962,34.575H149.18L138.948,61.5l-4.2,7.279L144.977,86.5h28.787Z" transform="translate(-88.244 -30.09)" fill="#ddc624"/></g></g></svg>